P1
176 50
0000000111000000000111111000000000111111000111000000111111000000111000111111111000111111111111111000000111000111000000000111000000111111000111111000000111000000111111111000000000000001110000000001111110000000001111110001110000001111110000001110001111111110001111111111111110000001110001110000000001110000001111110001111110000001110000001111111110000000000000011100000000011111100000000011111100011100000011111100000011100011111111100011111111111111100000011100011100000000011100000011111100011111100000011100000011111111100000000000000111000000000111111000000000111111000111000000111111000000111000111111111000111111111111111000000111000111000000000111000000111111000111111000000111000000111111111000000000000001110000000001111110000000001111110001110000001111110000001110001111111110001111111111111110000001110001110000000001110000001111110001111110000001110000001111111110000000000000011100000000011111100000000011111100011100000011111100000011100011111111100011111111111111100000011100011100000000011100000011111100011111100000011100000011111111100000000000000111000000000111111000000000111111000111000000111111000000111000111111111000111111111111111000000111000111000000000111000000111111000111111000000111000000111111111000000000000001110000000001111110000000001111110001110000001111110000001110001111111110001111111111111110000001110001110000000001110000001111110001111110000001110000001111111110000000000000011100000000011111100000000011111100011100000011111100000011100011111111100011111111111111100000011100011100000000011100000011111100011111100000011100000011111111100000000000000111000000000111111000000000111111000111000000111111000000111000111111111000111111111111111000000111000111000000000111000000111111000111111000000111000000111111111000000000000001110000000001111110000000001111110001110000001111110000001110001111111110001111111111111110000001110001110000000001110000001111110001111110000001110000001111111110000000000000011100000000011111100000000011111100011100000011111100000011100011111111100011111111111111100000011100011100000000011100000011111100011111100000011100000011111111100000000000000111000000000111111000000000111111000111000000111111000000111000111111111000111111111111111000000111000111000000000111000000111111000111111000000111000000111111111000000000000001110000000001111110000000001111110001110000001111110000001110001111111110001111111111111110000001110001110000000001110000001111110001111110000001110000001111111110000000000000011100000000011111100000000011111100011100000011111100000011100011111111100011111111111111100000011100011100000000011100000011111100011111100000011100000011111111100000000000000111000000000111111000000000111111000111000000111111000000111000111111111000111111111111111000000111000111000000000111000000111111000111111000000111000000111111111000000000000001110000000001111110000000001111110001110000001111110000001110001111111110001111111111111110000001110001110000000001110000001111110001111110000001110000001111111110000000000000011100000000011111100000000011111100011100000011111100000011100011111111100011111111111111100000011100011100000000011100000011111100011111100000011100000011111111100000000000000111000000000111111000000000111111000111000000111111000000111000111111111000111111111111111000000111000111000000000111000000111111000111111000000111000000111111111000000000000001110000000001111110000000001111110001110000001111110000001110001111111110001111111111111110000001110001110000000001110000001111110001111110000001110000001111111110000000000000011100000000011111100000000011111100011100000011111100000011100011111111100011111111111111100000011100011100000000011100000011111100011111100000011100000011111111100000000000000111000000000111111000000000111111000111000000111111000000111000111111111000111111111111111000000111000111000000000111000000111111000111111000000111000000111111111000000000000001110000000001111110000000001111110001110000001111110000001110001111111110001111111111111110000001110001110000000001110000001111110001111110000001110000001111111110000000000000011100000000011111100000000011111100011100000011111100000011100011111111100011111111111111100000011100011100000000011100000011111100011111100000011100000011111111100000000000000111000000000111111000000000111111000111000000111111000000111000111111111000111111111111111000000111000111000000000111000000111111000111111000000111000000111111111000000000000001110000000001111110000000001111110001110000001111110000001110001111111110001111111111111110000001110001110000000001110000001111110001111110000001110000001111111110000000000000011100000000011111100000000011111100011100000011111100000011100011111111100011111111111111100000011100011100000000011100000011111100011111100000011100000011111111100000000000000111000000000111111000000000111111000111000000111111000000111000111111111000111111111111111000000111000111000000000111000000111111000111111000000111000000111111111000000000000001110000000001111110000000001111110001110000001111110000001110001111111110001111111111111110000001110001110000000001110000001111110001111110000001110000001111111110000000000000011100000000011111100000000011111100011100000011111100000011100011111111100011111111111111100000011100011100000000011100000011111100011111100000011100000011111111100000000000000111000000000111111000000000111111000111000000111111000000111000111111111000111111111111111000000111000111000000000111000000111111000111111000000111000000111111111000000000000001110000000001111110000000001111110001110000001111110000001110001111111110001111111111111110000001110001110000000001110000001111110001111110000001110000001111111110000000000000011100000000011111100000000011111100011100000011111100000011100011111111100011111111111111100000011100011100000000011100000011111100011111100000011100000011111111100000000000000111000000000111111000000000111111000111000000111111000000111000111111111000111111111111111000000111000111000000000111000000111111000111111000000111000000111111111000000000000001110000000001111110000000001111110001110000001111110000001110001111111110001111111111111110000001110001110000000001110000001111110001111110000001110000001111111110000000000000011100000000011111100000000011111100011100000011111100000011100011111111100011111111111111100000011100011100000000011100000011111100011111100000011100000011111111100000000000000111000000000111111000000000111111000111000000111111000000111000111111111000111111111111111000000111000111000000000111000000111111000111111000000111000000111111111000000000000001110000000001111110000000001111110001110000001111110000001110001111111110001111111111111110000001110001110000000001110000001111110001111110000001110000001111111110000000000000011100000000011111100000000011111100011100000011111100000011100011111111100011111111111111100000011100011100000000011100000011111100011111100000011100000011111111100000000000000111000000000111111000000000111111000111000000111111000000111000111111111000111111111111111000000111000111000000000111000000111111000111111000000111000000111111111000000000000001110000000001111110000000001111110001110000001111110000001110001111111110001111111111111110000001110001110000000001110000001111110001111110000001110000001111111110000000000000011100000000011111100000000011111100011100000011111100000011100011111111100011111111111111100000011100011100000000011100000011111100011111100000011100000011111111100000000000000111000000000111111000000000111111000111000000111111000000111000111111111000111111111111111000000111000111000000000111000000111111000111111000000111000000111111111000000000000001110000000001111110000000001111110001110000001111110000001110001111111110001111111111111110000001110001110000000001110000001111110001111110000001110000001111111110000000000000011100000000011111100000000011111100011100000011111100000011100011111111100011111111111111100000011100011100000000011100000011111100011111100000011100000011111111100000000000000111000000000111111000000000111111000111000000111111000000111000111111111000111111111111111000000111000111000000000111000000111111000111111000000111000000111111111000000000000001110000000001111110000000001111110001110000001111110000001110001111111110001111111111111110000001110001110000000001110000001111110001111110000001110000001111111110000000000000011100000000011111100000000011111100011100000011111100000011100011111111100011111111111111100000011100011100000000011100000011111100011111100000011100000011111111100000000000000111000000000111111000000000111111000111000000111111000000111000111111111000111111111111111000000111000111000000000111000000111111000111111000000111000000111111111000000000000001110000000001111110000000001111110001110000001111110000001110001111111110001111111111111110000001110001110000000001110000001111110001111110000001110000001111111110000000
