P1
209 50
0000111000111000111000000000111111000000000111111000111000000111111000000111000111111111000111111000111000111000111111111000000111000111000000000111000000111111000111111000000111000000111111111000111000111000000001110001110001110000000001111110000000001111110001110000001111110000001110001111111110001111110001110001110001111111110000001110001110000000001110000001111110001111110000001110000001111111110001110001110000000011100011100011100000000011111100000000011111100011100000011111100000011100011111111100011111100011100011100011111111100000011100011100000000011100000011111100011111100000011100000011111111100011100011100000000111000111000111000000000111111000000000111111000111000000111111000000111000111111111000111111000111000111000111111111000000111000111000000000111000000111111000111111000000111000000111111111000111000111000000001110001110001110000000001111110000000001111110001110000001111110000001110001111111110001111110001110001110001111111110000001110001110000000001110000001111110001111110000001110000001111111110001110001110000000011100011100011100000000011111100000000011111100011100000011111100000011100011111111100011111100011100011100011111111100000011100011100000000011100000011111100011111100000011100000011111111100011100011100000000111000111000111000000000111111000000000111111000111000000111111000000111000111111111000111111000111000111000111111111000000111000111000000000111000000111111000111111000000111000000111111111000111000111000000001110001110001110000000001111110000000001111110001110000001111110000001110001111111110001111110001110001110001111111110000001110001110000000001110000001111110001111110000001110000001111111110001110001110000000011100011100011100000000011111100000000011111100011100000011111100000011100011111111100011111100011100011100011111111100000011100011100000000011100000011111100011111100000011100000011111111100011100011100000000111000111000111000000000111111000000000111111000111000000111111000000111000111111111000111111000111000111000111111111000000111000111000000000111000000111111000111111000000111000000111111111000111000111000000001110001110001110000000001111110000000001111110001110000001111110000001110001111111110001111110001110001110001111111110000001110001110000000001110000001111110001111110000001110000001111111110001110001110000000011100011100011100000000011111100000000011111100011100000011111100000011100011111111100011111100011100011100011111111100000011100011100000000011100000011111100011111100000011100000011111111100011100011100000000111000111000111000000000111111000000000111111000111000000111111000000111000111111111000111111000111000111000111111111000000111000111000000000111000000111111000111111000000111000000111111111000111000111000000001110001110001110000000001111110000000001111110001110000001111110000001110001111111110001111110001110001110001111111110000001110001110000000001110000001111110001111110000001110000001111111110001110001110000000011100011100011100000000011111100000000011111100011100000011111100000011100011111111100011111100011100011100011111111100000011100011100000000011100000011111100011111100000011100000011111111100011100011100000000111000111000111000000000111111000000000111111000111000000111111000000111000111111111000111111000111000111000111111111000000111000111000000000111000000111111000111111000000111000000111111111000111000111000000001110001110001110000000001111110000000001111110001110000001111110000001110001111111110001111110001110001110001111111110000001110001110000000001110000001111110001111110000001110000001111111110001110001110000000011100011100011100000000011111100000000011111100011100000011111100000011100011111111100011111100011100011100011111111100000011100011100000000011100000011111100011111100000011100000011111111100011100011100000000111000111000111000000000111111000000000111111000111000000111111000000111000111111111000111111000111000111000111111111000000111000111000000000111000000111111000111111000000111000000111111111000111000111000000001110001110001110000000001111110000000001111110001110000001111110000001110001111111110001111110001110001110001111111110000001110001110000000001110000001111110001111110000001110000001111111110001110001110000000011100011100011100000000011111100000000011111100011100000011111100000011100011111111100011111100011100011100011111111100000011100011100000000011100000011111100011111100000011100000011111111100011100011100000000111000111000111000000000111111000000000111111000111000000111111000000111000111111111000111111000111000111000111111111000000111000111000000000111000000111111000111111000000111000000111111111000111000111000000001110001110001110000000001111110000000001111110001110000001111110000001110001111111110001111110001110001110001111111110000001110001110000000001110000001111110001111110000001110000001111111110001110001110000000011100011100011100000000011111100000000011111100011100000011111100000011100011111111100011111100011100011100011111111100000011100011100000000011100000011111100011111100000011100000011111111100011100011100000000111000111000111000000000111111000000000111111000111000000111111000000111000111111111000111111000111000111000111111111000000111000111000000000111000000111111000111111000000111000000111111111000111000111000000001110001110001110000000001111110000000001111110001110000001111110000001110001111111110001111110001110001110001111111110000001110001110000000001110000001111110001111110000001110000001111111110001110001110000000011100011100011100000000011111100000000011111100011100000011111100000011100011111111100011111100011100011100011111111100000011100011100000000011100000011111100011111100000011100000011111111100011100011100000000111000111000111000000000111111000000000111111000111000000111111000000111000111111111000111111000111000111000111111111000000111000111000000000111000000111111000111111000000111000000111111111000111000111000000001110001110001110000000001111110000000001111110001110000001111110000001110001111111110001111110001110001110001111111110000001110001110000000001110000001111110001111110000001110000001111111110001110001110000000011100011100011100000000011111100000000011111100011100000011111100000011100011111111100011111100011100011100011111111100000011100011100000000011100000011111100011111100000011100000011111111100011100011100000000111000111000111000000000111111000000000111111000111000000111111000000111000111111111000111111000111000111000111111111000000111000111000000000111000000111111000111111000000111000000111111111000111000111000000001110001110001110000000001111110000000001111110001110000001111110000001110001111111110001111110001110001110001111111110000001110001110000000001110000001111110001111110000001110000001111111110001110001110000000011100011100011100000000011111100000000011111100011100000011111100000011100011111111100011111100011100011100011111111100000011100011100000000011100000011111100011111100000011100000011111111100011100011100000000111000111000111000000000111111000000000111111000111000000111111000000111000111111111000111111000111000111000111111111000000111000111000000000111000000111111000111111000000111000000111111111000111000111000000001110001110001110000000001111110000000001111110001110000001111110000001110001111111110001111110001110001110001111111110000001110001110000000001110000001111110001111110000001110000001111111110001110001110000000011100011100011100000000011111100000000011111100011100000011111100000011100011111111100011111100011100011100011111111100000011100011100000000011100000011111100011111100000011100000011111111100011100011100000000111000111000111000000000111111000000000111111000111000000111111000000111000111111111000111111000111000111000111111111000000111000111000000000111000000111111000111111000000111000000111111111000111000111000000001110001110001110000000001111110000000001111110001110000001111110000001110001111111110001111110001110001110001111111110000001110001110000000001110000001111110001111110000001110000001111111110001110001110000000011100011100011100000000011111100000000011111100011100000011111100000011100011111111100011111100011100011100011111111100000011100011100000000011100000011111100011111100000011100000011111111100011100011100000000111000111000111000000000111111000000000111111000111000000111111000000111000111111111000111111000111000111000111111111000000111000111000000000111000000111111000111111000000111000000111111111000111000111000000001110001110001110000000001111110000000001111110001110000001111110000001110001111111110001111110001110001110001111111110000001110001110000000001110000001111110001111110000001110000001111111110001110001110000000011100011100011100000000011111100000000011111100011100000011111100000011100011111111100011111100011100011100011111111100000011100011100000000011100000011111100011111100000011100000011111111100011100011100000000111000111000111000000000111111000000000111111000111000000111111000000111000111111111000111111000111000111000111111111000000111000111000000000111000000111111000111111000000111000000111111111000111000111000000001110001110001110000000001111110000000001111110001110000001111110000001110001111111110001111110001110001110001111111110000001110001110000000001110000001111110001111110000001110000001111111110001110001110000000011100011100011100000000011111100000000011111100011100000011111100000011100011111111100011111100011100011100011111111100000011100011100000000011100000011111100011111100000011100000011111111100011100011100000000111000111000111000000000111111000000000111111000111000000111111000000111000111111111000111111000111000111000111111111000000111000111000000000111000000111111000111111000000111000000111111111000111000111000000001110001110001110000000001111110000000001111110001110000001111110000001110001111111110001111110001110001110001111111110000001110001110000000001110000001111110001111110000001110000001111111110001110001110000000011100011100011100000000011111100000000011111100011100000011111100000011100011111111100011111100011100011100011111111100000011100011100000000011100000011111100011111100000011100000011111111100011100011100000000111000111000111000000000111111000000000111111000111000000111111000000111000111111111000111111000111000111000111111111000000111000111000000000111000000111111000111111000000111000000111111111000111000111000000001110001110001110000000001111110000000001111110001110000001111110000001110001111111110001111110001110001110001111111110000001110001110000000001110000001111110001111110000001110000001111111110001110001110000
